<svg width="24" height="24" viewBox="0 0 24 24" fill="none" xmlns="http://www.w3.org/2000/svg">
<g clip-path="url(#clip0_2_86)">
<path d="M12.0036 7.95702C9.73213 7.95702 7.89999 9.76053 7.89999 11.9965C7.89999 14.2324 9.73213 16.0359 12.0036 16.0359C14.275 16.0359 16.1071 14.2324 16.1071 11.9965C16.1071 9.76053 14.275 7.95702 12.0036 7.95702ZM12.0036 14.6226C10.5357 14.6226 9.3357 13.4449 9.3357 11.9965C9.3357 10.548 10.5321 9.3703 12.0036 9.3703C13.475 9.3703 14.6714 10.548 14.6714 11.9965C14.6714 13.4449 13.4714 14.6226 12.0036 14.6226ZM17.2321 7.79178C17.2321 8.31561 16.8036 8.73397 16.275 8.73397C15.7428 8.73397 15.3178 8.31209 15.3178 7.79178C15.3178 7.27147 15.7464 6.8496 16.275 6.8496C16.8036 6.8496 17.2321 7.27147 17.2321 7.79178ZM19.95 8.74803C19.8893 7.48592 19.5964 6.36796 18.6571 5.44686C17.7214 4.52577 16.5857 4.23749 15.3036 4.17421C13.9821 4.10038 10.0214 4.10038 8.69999 4.17421C7.42142 4.23397 6.28571 4.52225 5.34642 5.44335C4.40714 6.36444 4.11785 7.48241 4.05356 8.74452C3.97856 10.0453 3.97856 13.9441 4.05356 15.2449C4.11428 16.507 4.40714 17.625 5.34642 18.5461C6.28571 19.4672 7.41785 19.7554 8.69999 19.8187C10.0214 19.8926 13.9821 19.8926 15.3036 19.8187C16.5857 19.759 17.7214 19.4707 18.6571 18.5461C19.5928 17.625 19.8857 16.507 19.95 15.2449C20.025 13.9441 20.025 10.0488 19.95 8.74803ZM18.2428 16.6406C17.9643 17.3297 17.425 17.8605 16.7214 18.1383C15.6678 18.5496 13.1678 18.4547 12.0036 18.4547C10.8393 18.4547 8.3357 18.5461 7.2857 18.1383C6.58571 17.864 6.04642 17.3332 5.76428 16.6406C5.34642 15.6035 5.44285 13.1426 5.44285 11.9965C5.44285 10.8504 5.34999 8.38592 5.76428 7.35233C6.04285 6.66327 6.58213 6.13241 7.2857 5.85467C8.33928 5.44335 10.8393 5.53827 12.0036 5.53827C13.1678 5.53827 15.6714 5.44686 16.7214 5.85467C17.4214 6.12889 17.9607 6.65975 18.2428 7.35233C18.6607 8.38944 18.5643 10.8504 18.5643 11.9965C18.5643 13.1426 18.6607 15.607 18.2428 16.6406Z" fill="white"/>
</g>
<defs>
<clipPath id="clip0_2_86">
<rect width="16" height="18" fill="white" transform="translate(4 3)"/>
</clipPath>
</defs>
</svg>
